<svg width="46" height="50" viewBox="0 0 46 50" fill="none" xmlns="http://www.w3.org/2000/svg">
<path d="M28.9228 1.562C30.2091 2.08446 31.5013 2.59497 32.7786 3.13832C34.411 3.83094 35.3391 5.10872 35.7361 6.80744C35.7838 7.01045 35.8196 7.21645 35.8584 7.42244C35.9957 8.15985 36.0673 8.20164 36.7507 7.96281C37.1805 7.81354 37.6132 7.66725 38.0459 7.52096C39.55 7.01941 40.5498 7.32691 41.4899 8.59572C42.3374 9.73617 42.8567 11.0348 42.997 12.432C43.2118 14.5666 43.3789 16.7102 43.4506 18.8537C43.5252 21.1615 43.9131 23.3498 44.8622 25.4904C47.3153 31.0195 43.746 36.4709 37.6908 36.5485C37.1268 36.5545 36.5567 36.4918 35.9987 36.3992C35.5421 36.3246 35.4197 36.0708 35.5898 35.5752C36.2703 33.5601 37.0402 31.5568 37.5147 29.4879C38.4936 25.2068 37.8281 21.0689 36.0554 17.0804C34.9601 14.6174 33.5247 12.429 31.1969 10.9721C30.2658 10.39 29.1884 10.0347 28.2871 9.41374C26.977 8.51512 25.7564 7.48514 24.5179 6.48202C23.8554 5.94464 23.1601 5.52967 22.3036 5.37741C21.5366 5.24008 20.7935 4.97437 20.0265 4.84898C19.5132 4.76539 18.976 4.81614 18.4508 4.8251C18.0926 4.83107 17.7286 4.93258 17.3794 4.88779C16.8661 4.81913 16.7079 4.36534 17.0272 3.96231C18.7522 1.79487 21.0143 0.540978 23.7151 0.0424076C24.6224 -0.124778 25.4341 0.236462 26.2578 0.532021C27.1501 0.85445 28.0454 1.17389 28.9407 1.49334C28.9318 1.51722 28.9258 1.53812 28.9168 1.562H28.9228Z" fill="#F0F0CC"/>
<path d="M20.8562 10.2019C21.1159 10.193 21.3815 10.1422 21.6322 10.184C30.433 11.6051 35.1244 18.403 35.9272 25.0605C36.4584 29.4671 34.6797 32.9033 30.8956 35.2051C30.1017 35.6887 29.0751 35.8111 28.138 36.0231C27.2875 36.2172 26.4101 36.2799 25.5536 36.453C24.4554 36.6769 23.5302 37.2083 22.8587 38.1308C22.814 38.1905 22.7603 38.2443 22.7095 38.301C21.8202 39.2952 20.8174 39.2354 20.0624 38.1428C18.5016 35.8828 18.4151 33.8288 20.0087 31.5181C21.2561 29.7089 22.6946 28.034 24.0435 26.2935C25.103 24.9232 26.1445 23.5379 26.7055 21.8721C27.4516 19.6628 27.0249 17.573 26.055 15.522C25.091 13.4859 23.4019 12.1902 21.6053 10.9841C21.3278 10.799 21.0741 10.5781 20.8085 10.3721C20.8264 10.3124 20.8413 10.2557 20.8592 10.196L20.8562 10.2019Z" fill="#F0F0CC"/>
<path d="M33.3546 36.1395C33.295 36.3933 33.2532 36.653 33.1696 36.8978C32.0594 40.2146 30.0778 42.9075 27.2308 44.9197C25.0134 46.4871 22.7453 47.9887 20.4414 49.4277C18.8896 50.398 17.3646 50.0517 15.9261 49.0098C14.2847 47.8186 12.6224 46.6513 10.9363 45.5228C9.17852 44.3465 7.76693 42.8627 6.77912 40.9938C6.19419 39.8892 6.28969 38.7518 6.82687 37.6442C7.06561 37.1516 7.44462 36.8918 8.01761 36.9575C10.0917 37.1963 12.1629 37.4471 14.24 37.6561C15.4994 37.7815 16.523 38.3129 17.3526 39.2503C17.7436 39.6922 18.1345 40.134 18.5553 40.546C19.1761 41.1491 19.9639 41.4476 20.7548 41.0894C23.2676 39.9489 25.9565 39.4056 28.5857 38.6473C30.1226 38.2054 31.5044 37.4591 32.7041 36.3903C32.8533 36.2559 33.0383 36.1634 33.2054 36.0499C33.2562 36.0798 33.3039 36.1096 33.3546 36.1395Z" fill="#F0F0CC"/>
<path d="M14.613 21.6899C13.4641 21.4361 12.6165 20.3703 12.6374 19.2119C12.6583 18.0446 12.9836 16.9639 13.7147 16.0265C14.6638 14.8054 15.7829 14.5875 17.1229 15.3786C18.2181 16.0235 19.003 16.9788 19.6416 18.0476C20.4802 19.4508 21.2681 20.8868 22.0888 22.3019C22.8707 23.6453 22.5454 24.944 21.9396 26.2248C21.2979 27.5802 20.3638 28.6848 19.0895 29.4879C18.0778 30.1238 17.096 30.1148 16.1858 29.3446C13.864 27.3801 11.96 25.0843 10.7662 22.2452C9.94254 20.2867 9.9306 18.388 10.9632 16.4803C11.6705 15.1756 12.324 13.8531 13.3775 12.7723C15.8605 10.2317 19.391 10.178 21.9127 12.6619C23.3661 14.0949 24.4106 15.7697 24.903 17.767C25.1179 18.6417 25.1179 19.5254 24.7389 20.3375C24.5837 20.6688 24.2107 20.9823 23.8615 21.1137C23.4138 21.2838 23.1273 20.8719 22.9453 20.5136C22.2738 19.191 21.5695 17.8774 20.9876 16.5161C20.0893 14.4233 18.4628 13.2799 16.335 12.7723C15.9769 12.6857 15.4994 12.8261 15.1532 13.0082C14.046 13.5874 13.3805 14.5905 12.8165 15.6652C12.2047 16.8296 11.8346 18.0566 11.9062 19.3881C11.9838 20.8599 12.6165 22.0541 13.7416 22.9885C14.3415 23.4901 15.0517 23.6603 15.768 23.3468C16.4036 23.0662 17.0512 22.7318 17.5735 22.284C19.1761 20.9137 18.8866 17.7939 17.099 16.6474C15.9411 15.9041 14.3623 16.4295 13.6968 17.7759C13.0283 19.1343 13.3178 20.4449 14.613 21.6869V21.6899Z" fill="#F0F0CC"/>
<path d="M20.713 7.13569C21.9933 7.73278 22.9125 8.1388 23.8078 8.59259C23.9869 8.68216 24.0764 8.94786 24.2047 9.13296C24.0018 9.24939 23.7929 9.47927 23.6019 9.46136C22.3604 9.3509 21.0861 9.32104 19.8894 9.01056C17.7108 8.44631 15.6337 8.40451 13.673 9.61959C11.9212 10.7063 10.4648 12.1244 9.39047 13.8918C7.15818 17.5698 7.50138 21.9764 10.238 25.5858C11.39 27.1054 12.8165 28.3115 14.3624 29.3952C15.2577 30.0222 15.5084 30.7417 15.195 31.5925C14.9951 32.1329 14.6459 32.3329 14.0789 32.1956C9.87393 31.1716 5.95549 27.8786 5.33774 22.7138C5.10197 20.7344 4.74683 18.767 4.40364 16.7996C4.19772 15.6114 4.53196 14.5665 5.17061 13.6141C6.32555 11.8975 7.50437 10.1958 8.71601 8.51796C10.3484 6.25498 12.6583 5.54146 15.3024 5.95644C17.2482 6.26096 19.1552 6.78938 20.7071 7.13569H20.713Z" fill="#F0F0CC"/>
<path d="M14.5951 35.7695C14.1325 35.8441 13.661 36.0232 13.2134 35.9755C9.94551 35.6291 6.65677 35.3545 3.56499 34.1125C2.95619 33.8677 2.36827 33.5274 1.84303 33.1303C0.917885 32.4347 0.547829 31.4614 0.529923 30.2941C0.517986 29.4522 0.419501 28.5894 0.201644 27.7774C-0.231085 26.1473 0.055414 24.6666 0.843279 23.2186C1.49983 22.0185 2.10565 20.7914 2.7264 19.5734C2.87561 19.2778 3.02483 18.8927 3.40384 19.0539C3.63065 19.1524 3.84254 19.5107 3.88432 19.7794C4.10218 21.1378 4.07233 22.4961 3.78882 23.8545C3.10242 27.1355 4.40359 29.6672 6.82389 31.7809C8.21161 32.993 9.82912 33.7632 11.5242 34.4081C12.5329 34.7932 13.5566 35.1425 14.5742 35.5067L14.5921 35.7695H14.5951Z" fill="#F0F0CC"/>
<path d="M16.7407 17.6775C17.4719 18.6478 17.1735 19.9076 16.1737 20.3734C15.4217 20.7256 14.3473 20.0569 14.3563 19.224C14.3563 19.0598 14.4667 18.8209 14.592 18.7582C14.7472 18.6836 14.983 18.7343 15.171 18.7791C15.2665 18.8 15.3381 18.9284 15.4187 19.009C15.9051 19.4986 16.3767 19.3792 16.5587 18.7015C16.6423 18.385 16.6751 18.0566 16.7407 17.6775Z" fill="#F0F0CC"/>
</svg>
