<svg width="46" height="50" viewBox="0 0 46 50" fill="none" xmlns="http://www.w3.org/2000/svg">
<path d="M28.9229 1.562C30.2092 2.08446 31.5014 2.59497 32.7787 3.13832C34.4111 3.83095 35.3392 5.10872 35.7362 6.80745C35.7839 7.01046 35.8197 7.21645 35.8585 7.42245C35.9958 8.15986 36.0674 8.20165 36.7508 7.96282C37.1806 7.81354 37.6133 7.66726 38.046 7.52097C39.5502 7.01941 40.5499 7.32692 41.49 8.59573C42.3375 9.73618 42.8568 11.0348 42.9971 12.432C43.2119 14.5666 43.3791 16.7102 43.4507 18.8538C43.5253 21.1615 43.9133 23.3498 44.8623 25.4904C47.3154 31.0195 43.7461 36.4709 37.6909 36.5485C37.1269 36.5545 36.5569 36.4918 35.9988 36.3993C35.5422 36.3246 35.4198 36.0709 35.5899 35.5753C36.2704 33.5601 37.0403 31.5569 37.5148 29.4879C38.4937 25.2068 37.8282 21.069 36.0555 17.0804C34.9602 14.6174 33.5248 12.4291 31.197 10.9722C30.2659 10.39 29.1885 10.0347 28.2873 9.41375C26.9771 8.51513 25.7565 7.48514 24.518 6.48203C23.8555 5.94465 23.1602 5.52967 22.3037 5.37741C21.5367 5.24008 20.7936 4.97438 20.0266 4.84899C19.5133 4.7654 18.9761 4.81615 18.4509 4.82511C18.0928 4.83108 17.7287 4.93258 17.3795 4.8878C16.8662 4.81913 16.708 4.36535 17.0274 3.96231C18.7523 1.79487 21.0144 0.540978 23.7153 0.0424076C24.6225 -0.124778 25.4342 0.236462 26.2579 0.532022C27.1502 0.854451 28.0455 1.17389 28.9408 1.49334C28.9319 1.51722 28.9259 1.53812 28.917 1.562H28.9229Z" fill="#0E0E33"/>
<path d="M20.8561 10.2019C21.1158 10.193 21.3814 10.1422 21.6321 10.184C30.4329 11.6051 35.1242 18.403 35.927 25.0605C36.4582 29.4671 34.6796 32.9033 30.8954 35.2051C30.1016 35.6888 29.075 35.8112 28.1379 36.0231C27.2874 36.2172 26.41 36.2799 25.5535 36.453C24.4552 36.6769 23.5301 37.2084 22.8586 38.1309C22.8138 38.1906 22.7601 38.2443 22.7094 38.301C21.8201 39.2952 20.8173 39.2355 20.0623 38.1428C18.5015 35.8828 18.4149 33.8288 20.0086 31.5181C21.256 29.7089 22.6945 28.0341 24.0434 26.2935C25.1028 24.9232 26.1444 23.538 26.7054 21.8721C27.4515 19.6628 27.0247 17.573 26.0548 15.522C25.0909 13.4859 23.4018 12.1902 21.6052 10.9841C21.3276 10.799 21.074 10.5781 20.8084 10.3721C20.8263 10.3124 20.8412 10.2557 20.8591 10.196L20.8561 10.2019Z" fill="#0E0E33"/>
<path d="M33.3546 36.1395C33.2949 36.3933 33.2532 36.653 33.1696 36.8978C32.0594 40.2146 30.0778 42.9075 27.2308 44.9197C25.0134 46.4871 22.7453 47.9888 20.4414 49.4277C18.8896 50.398 17.3646 50.0517 15.9261 49.0098C14.2847 47.8186 12.6224 46.6513 10.9363 45.5228C9.17852 44.3465 7.76693 42.8627 6.77912 40.9938C6.19419 39.8892 6.28969 38.7518 6.82687 37.6442C7.06561 37.1516 7.44462 36.8918 8.01761 36.9575C10.0917 37.1963 12.1629 37.4471 14.24 37.6561C15.4993 37.7815 16.523 38.3129 17.3526 39.2503C17.7436 39.6922 18.1345 40.134 18.5553 40.546C19.176 41.1491 19.9639 41.4476 20.7548 41.0894C23.2676 39.9489 25.9565 39.4056 28.5857 38.6473C30.1226 38.2054 31.5043 37.4591 32.704 36.3903C32.8533 36.2559 33.0383 36.1634 33.2054 36.0499C33.2561 36.0798 33.3039 36.1096 33.3546 36.1395Z" fill="#0E0E33"/>
<path d="M14.613 21.6899C13.4641 21.4361 12.6165 20.3703 12.6374 19.212C12.6583 18.0446 12.9836 16.9639 13.7147 16.0265C14.6638 14.8054 15.7829 14.5875 17.1229 15.3786C18.2181 16.0235 19.003 16.9788 19.6416 18.0476C20.4802 19.4508 21.2681 20.8868 22.0888 22.3019C22.8707 23.6454 22.5454 24.944 21.9396 26.2248C21.2979 27.5802 20.3638 28.6848 19.0895 29.4879C18.0778 30.1238 17.096 30.1148 16.1858 29.3446C13.864 27.3802 11.96 25.0843 10.7662 22.2452C9.94254 20.2867 9.9306 18.388 10.9632 16.4803C11.6705 15.1756 12.324 13.8531 13.3775 12.7723C15.8605 10.2317 19.3909 10.178 21.9127 12.6619C23.3661 14.0949 24.4106 15.7697 24.903 17.767C25.1179 18.6417 25.1179 19.5254 24.7389 20.3375C24.5837 20.6689 24.2107 20.9823 23.8615 21.1137C23.4138 21.2839 23.1273 20.8719 22.9453 20.5136C22.2738 19.1911 21.5695 17.8775 20.9876 16.5161C20.0893 14.4233 18.4628 13.2799 16.335 12.7723C15.9769 12.6857 15.4994 12.8261 15.1532 13.0082C14.046 13.5874 13.3805 14.5905 12.8165 15.6652C12.2047 16.8296 11.8346 18.0566 11.9062 19.3881C11.9838 20.8599 12.6165 22.0541 13.7416 22.9886C14.3415 23.4901 15.0517 23.6603 15.768 23.3468C16.4036 23.0662 17.0512 22.7318 17.5735 22.284C19.1761 20.9137 18.8866 17.7939 17.099 16.6474C15.9411 15.9041 14.3623 16.4295 13.6968 17.7759C13.0283 19.1343 13.3178 20.4449 14.613 21.6869V21.6899Z" fill="#0E0E33"/>
<path d="M20.713 7.13569C21.9933 7.73279 22.9124 8.13881 23.8077 8.59259C23.9868 8.68216 24.0763 8.94787 24.2047 9.13296C24.0017 9.2494 23.7928 9.47928 23.6018 9.46136C22.3603 9.3509 21.086 9.32105 19.8893 9.01056C17.7107 8.44631 15.6336 8.40451 13.6729 9.61959C11.9211 10.7063 10.4648 12.1244 9.3904 13.8918C7.15812 17.5699 7.50132 21.9764 10.238 25.5858C11.3899 27.1054 12.8164 28.3115 14.3623 29.3952C15.2576 30.0222 15.5083 30.7417 15.1949 31.5925C14.995 32.1329 14.6458 32.3329 14.0788 32.1956C9.87386 31.1716 5.95543 27.8786 5.33767 22.7138C5.10191 20.7344 4.74677 18.767 4.40357 16.7996C4.19766 15.6114 4.5319 14.5665 5.17055 13.6141C6.32549 11.8975 7.5043 10.1958 8.71595 8.51796C10.3484 6.25498 12.6583 5.54146 15.3024 5.95644C17.2482 6.26096 19.1552 6.78938 20.707 7.13569H20.713Z" fill="#0E0E33"/>
<path d="M14.5951 35.7695C14.1325 35.8441 13.661 36.0232 13.2134 35.9755C9.9455 35.6292 6.65676 35.3545 3.56499 34.1125C2.95619 33.8677 2.36827 33.5274 1.84303 33.1303C0.917885 32.4347 0.547829 31.4615 0.529923 30.2941C0.517985 29.4522 0.4195 28.5895 0.201644 27.7774C-0.231085 26.1474 0.055414 24.6666 0.843279 23.2186C1.49983 22.0185 2.10565 20.7914 2.72639 19.5734C2.87561 19.2778 3.02483 18.8927 3.40384 19.0539C3.63065 19.1524 3.84254 19.5107 3.88432 19.7794C4.10217 21.1378 4.07233 22.4961 3.78882 23.8545C3.10242 27.1355 4.40359 29.6672 6.82389 31.7809C8.2116 32.993 9.82911 33.7632 11.5242 34.4081C12.5329 34.7932 13.5566 35.1425 14.5742 35.5068L14.5921 35.7695H14.5951Z" fill="#0E0E33"/>
<path d="M16.7409 17.6775C17.472 18.6478 17.1736 19.9076 16.1738 20.3734C15.4218 20.7256 14.3474 20.0569 14.3564 19.224C14.3564 19.0598 14.4668 18.8209 14.5921 18.7582C14.7473 18.6836 14.9831 18.7343 15.1711 18.7791C15.2666 18.8 15.3382 18.9284 15.4188 19.009C15.9052 19.4986 16.3768 19.3792 16.5588 18.7015C16.6424 18.385 16.6752 18.0566 16.7409 17.6775Z" fill="#0E0E33"/>
</svg>
