<svg width="31" height="32" viewBox="0 0 31 32" fill="none" xmlns="http://www.w3.org/2000/svg">
<path d="M21.8532 6.02444C22.244 6.18626 22.6366 6.34439 23.0247 6.51269C23.5206 6.72723 23.8026 7.12301 23.9232 7.64918C23.9377 7.71206 23.9486 7.77586 23.9603 7.83967C24.002 8.06808 24.0238 8.08102 24.2314 8.00704C24.362 7.96081 24.4935 7.9155 24.6249 7.87019C25.0819 7.71483 25.3856 7.81008 25.6712 8.20309C25.9287 8.55633 26.0865 8.95858 26.1291 9.39135C26.1944 10.0525 26.2452 10.7165 26.2669 11.3804C26.2896 12.0952 26.4075 12.7731 26.6958 13.4361C27.4411 15.1487 26.3567 16.8372 24.517 16.8613C24.3457 16.8631 24.1725 16.8437 24.003 16.815C23.8642 16.7919 23.8271 16.7133 23.8787 16.5598C24.0855 15.9356 24.3194 15.3151 24.4635 14.6743C24.7609 13.3482 24.5587 12.0666 24.0202 10.8311C23.6874 10.0683 23.2513 9.39043 22.5441 8.93916C22.2612 8.75884 21.9339 8.6488 21.6601 8.45646C21.2621 8.17812 20.8913 7.85909 20.515 7.54838C20.3137 7.38193 20.1024 7.25339 19.8422 7.20623C19.6092 7.1637 19.3835 7.0814 19.1504 7.04256C18.9945 7.01667 18.8313 7.03239 18.6717 7.03516C18.5629 7.03701 18.4523 7.06845 18.3462 7.05458C18.1903 7.03331 18.1422 6.89275 18.2392 6.76792C18.7633 6.09657 19.4505 5.70818 20.2711 5.55375C20.5467 5.50197 20.7933 5.61386 21.0436 5.70541C21.3147 5.80528 21.5867 5.90422 21.8587 6.00317C21.856 6.01057 21.8541 6.01704 21.8514 6.02444H21.8532Z" fill="#0E0E33"/>
<path d="M19.4024 8.70057C19.4812 8.69779 19.5619 8.68207 19.6381 8.69502C22.3119 9.13519 23.7372 11.2408 23.9811 13.3029C24.1424 14.6678 23.6021 15.7322 22.4524 16.4451C22.2112 16.5949 21.8993 16.6328 21.6146 16.6985C21.3562 16.7586 21.0897 16.778 20.8295 16.8317C20.4958 16.901 20.2147 17.0656 20.0107 17.3513C19.9971 17.3698 19.9808 17.3865 19.9654 17.4041C19.6952 17.712 19.3906 17.6935 19.1612 17.355C18.687 16.655 18.6607 16.0188 19.1449 15.3031C19.5238 14.7427 19.9609 14.2239 20.3707 13.6848C20.6925 13.2604 21.009 12.8313 21.1794 12.3153C21.4061 11.631 21.2764 10.9837 20.9818 10.3484C20.6889 9.71776 20.1757 9.31643 19.6299 8.94284C19.5456 8.88551 19.4685 8.81708 19.3878 8.75328C19.3933 8.73478 19.3978 8.71721 19.4033 8.69872L19.4024 8.70057Z" fill="#0E0E33"/>
<path d="M23.1995 16.7346C23.1814 16.8132 23.1687 16.8936 23.1433 16.9694C22.806 17.9968 22.204 18.8309 21.3391 19.4542C20.6654 19.9396 19.9763 20.4048 19.2764 20.8505C18.8049 21.151 18.3416 21.0438 17.9046 20.721C17.4059 20.3521 16.9009 19.9905 16.3886 19.641C15.8546 19.2766 15.4257 18.817 15.1256 18.2382C14.9479 17.896 14.9769 17.5437 15.1401 17.2006C15.2127 17.048 15.3278 16.9676 15.5019 16.9879C16.132 17.0619 16.7613 17.1396 17.3923 17.2043C17.7749 17.2432 18.0859 17.4078 18.338 17.6981C18.4567 17.835 18.5755 17.9718 18.7034 18.0994C18.8919 18.2862 19.1313 18.3787 19.3716 18.2678C20.135 17.9145 20.9519 17.7462 21.7507 17.5113C22.2176 17.3745 22.6374 17.1433 23.0019 16.8122C23.0472 16.7706 23.1034 16.742 23.1542 16.7068C23.1696 16.7161 23.1841 16.7253 23.1995 16.7346Z" fill="#0E0E33"/>
<path d="M17.5057 12.2589C17.1566 12.1803 16.8991 11.8502 16.9055 11.4914C16.9118 11.1298 17.0107 10.7951 17.2328 10.5047C17.5211 10.1265 17.8611 10.059 18.2682 10.3041C18.601 10.5038 18.8394 10.7997 19.0334 11.1308C19.2882 11.5654 19.5276 12.0102 19.7769 12.4485C20.0145 12.8646 19.9156 13.2669 19.7316 13.6636C19.5366 14.0834 19.2529 14.4256 18.8657 14.6743C18.5583 14.8713 18.26 14.8685 17.9835 14.6299C17.2781 14.0215 16.6997 13.3103 16.337 12.4309C16.0868 11.8243 16.0831 11.2362 16.3968 10.6453C16.6117 10.2412 16.8103 9.83153 17.1303 9.49678C17.8847 8.70984 18.9573 8.6932 19.7234 9.46257C20.165 9.90644 20.4823 10.4252 20.6319 11.0438C20.6972 11.3148 20.6972 11.5885 20.582 11.84C20.5349 11.9427 20.4216 12.0398 20.3155 12.0805C20.1795 12.1332 20.0924 12.0056 20.0371 11.8946C19.8331 11.4849 19.6192 11.0781 19.4424 10.6564C19.1694 10.0082 18.6753 9.65399 18.0288 9.49678C17.92 9.46997 17.775 9.51343 17.6698 9.56984C17.3334 9.74923 17.1312 10.0599 16.9599 10.3928C16.774 10.7535 16.6616 11.1335 16.6833 11.546C16.7069 12.0019 16.8991 12.3717 17.2409 12.6612C17.4232 12.8165 17.639 12.8692 17.8566 12.7722C18.0497 12.6852 18.2464 12.5817 18.4051 12.4429C18.892 12.0185 18.8041 11.0522 18.261 10.6971C17.9092 10.4668 17.4295 10.6296 17.2273 11.0466C17.0243 11.4674 17.1122 11.8733 17.5057 12.258V12.2589Z" fill="#0E0E33"/>
<path d="M19.3588 7.7509C19.7478 7.93584 20.027 8.0616 20.299 8.20216C20.3534 8.2299 20.3806 8.3122 20.4196 8.36954C20.358 8.4056 20.2945 8.4768 20.2365 8.47125C19.8593 8.43704 19.4722 8.42779 19.1086 8.33162C18.4467 8.15685 17.8157 8.1439 17.22 8.52026C16.6878 8.85686 16.2453 9.29611 15.9189 9.84354C15.2407 10.9828 15.345 12.3477 16.1764 13.4657C16.5264 13.9364 16.9598 14.31 17.4294 14.6456C17.7014 14.8398 17.7776 15.0627 17.6824 15.3262C17.6216 15.4936 17.5156 15.5556 17.3433 15.513C16.0658 15.1958 14.8753 14.1759 14.6876 12.5761C14.616 11.963 14.5081 11.3536 14.4039 10.7442C14.3413 10.3762 14.4428 10.0525 14.6369 9.75754C14.9878 9.22583 15.3459 8.69874 15.714 8.17904C16.2099 7.4781 16.9117 7.25709 17.715 7.38563C18.3062 7.47995 18.8855 7.64363 19.357 7.7509H19.3588Z" fill="#0E0E33"/>
<path d="M17.5002 16.6199C17.3597 16.6431 17.2165 16.6985 17.0805 16.6837C16.0877 16.5765 15.0885 16.4914 14.1492 16.1067C13.9642 16.0309 13.7856 15.9255 13.626 15.8025C13.345 15.587 13.2325 15.2856 13.2271 14.924C13.2235 14.6632 13.1935 14.396 13.1274 14.1445C12.9959 13.6396 13.0829 13.1809 13.3223 12.7324C13.5218 12.3607 13.7058 11.9806 13.8944 11.6033C13.9397 11.5118 13.9851 11.3925 14.1002 11.4424C14.1691 11.4729 14.2335 11.5839 14.2462 11.6671C14.3124 12.0879 14.3033 12.5086 14.2172 12.9294C14.0086 13.9456 14.404 14.7298 15.1393 15.3845C15.5609 15.7599 16.0523 15.9985 16.5673 16.1983C16.8737 16.3176 17.1847 16.4257 17.4939 16.5386L17.4993 16.6199H17.5002Z" fill="#0E0E33"/>
<path d="M18.1522 11.0161C18.3743 11.3166 18.2836 11.7069 17.9799 11.8511C17.7514 11.9602 17.425 11.7531 17.4278 11.4951C17.4278 11.4442 17.4613 11.3703 17.4994 11.3508C17.5465 11.3277 17.6182 11.3434 17.6753 11.3573C17.7043 11.3638 17.726 11.4035 17.7505 11.4285C17.8983 11.5802 18.0416 11.5432 18.0969 11.3333C18.1223 11.2352 18.1322 11.1335 18.1522 11.0161Z" fill="#0E0E33"/>
<path d="M30.7948 12.3366C30.5845 10.9912 30.3578 9.65678 29.8927 8.37049C29.5345 7.37918 29.132 6.41285 28.598 5.50755C27.83 4.20461 26.9324 3.00062 25.8408 1.96123C25.0601 1.21683 24.3067 0.414172 23.2196 0.133981C22.9249 0.0572291 22.6184 -0.0629848 22.3011 0.0396594C22.1261 0.0969922 22.0491 0.148777 22.254 0.310603C22.603 0.584321 22.9458 0.873759 23.2513 1.19556C23.6865 1.65515 24.0882 2.14988 24.5016 2.63073C25.061 3.28174 25.5252 4.0021 25.9849 4.72615C26.3367 5.28006 26.5425 5.90795 26.8454 6.48498C27.2824 7.31908 27.616 8.19202 27.8817 9.0927C28.0485 9.65955 28.16 10.2403 28.258 10.8266C28.403 11.693 28.4973 12.5567 28.5182 13.4343C28.5336 14.0991 28.4901 14.7585 28.4556 15.4206C28.432 15.9366 28.3631 16.4452 28.2706 16.9501C28.2697 16.9565 28.2679 16.963 28.267 16.9686C28.2607 17.0046 28.2543 17.0407 28.248 17.0758C28.238 17.1267 28.228 17.1757 28.2181 17.2247C28.2181 17.2303 28.2181 17.2349 28.2153 17.2395C28.1682 17.4781 28.1165 17.7167 28.063 17.9552C28.0331 18.0884 28.0023 18.2206 27.9714 18.3538C27.9143 18.6016 27.9325 18.8892 27.8137 19.0963C27.4973 19.6447 27.3476 20.2809 26.9469 20.7793C26.8182 20.9393 26.7366 21.1289 26.6432 21.3101C26.6268 21.3416 26.6096 21.373 26.5924 21.4035C26.5307 21.5126 26.4609 21.6162 26.3693 21.705C26.314 21.7577 26.2569 21.8086 26.1989 21.8594C26.1517 21.901 26.1046 21.9417 26.0584 21.9833C25.9822 22.0536 25.9079 22.1257 25.8426 22.2053C25.5697 22.5428 25.2659 22.8332 24.9359 23.0791C24.7101 23.2493 24.4717 23.3982 24.2214 23.5276C24.2205 23.5285 24.2187 23.5295 24.2178 23.5295C23.9077 23.6913 23.5795 23.8217 23.235 23.9252C22.5894 24.1185 21.9121 24.2868 21.2512 24.2369C20.1867 24.1564 19.1178 24.0094 18.1223 23.5443C17.348 23.1818 16.599 22.7749 15.9209 22.2524C15.3206 21.7891 14.7639 21.2648 14.2888 20.6638C14.0304 20.3355 13.6587 20.2596 13.3196 20.3225C12.6741 20.4437 12.0448 20.6619 11.4292 20.9033C11.3231 20.9449 11.2741 20.9689 11.1862 20.8505C10.9351 20.5139 10.5515 20.4011 10.2288 20.5149C10.1336 20.5482 10.0937 20.6471 9.97035 20.6554C9.26587 20.7044 8.57498 20.8533 7.88773 21.0105C7.25305 21.1566 6.62382 21.3259 5.98734 21.4646C5.45512 21.5811 4.91021 21.644 4.38071 21.7753C3.6862 21.9482 3.0071 22.1831 2.31259 22.356C1.83659 22.4734 1.40501 22.7055 1.00426 22.9497C0.603514 23.1938 0.360525 23.6525 0.170124 24.1093C-0.00577075 24.5309 -0.0665178 25.0035 0.0903366 25.3909C0.470233 26.3277 1.44581 26.7845 2.45585 26.6328C2.94817 26.5598 3.41148 26.4054 3.88204 26.2482C4.71074 25.9717 5.52131 25.6425 6.32915 25.3151C7.09983 25.0026 7.85962 24.6539 8.62213 24.3183C9.33659 24.0039 10.0619 23.7181 10.7972 23.4731C11.2143 23.3334 11.4872 23.1429 11.5969 22.7102C11.6241 22.6038 11.7112 22.5141 11.8263 22.4799C12.0548 22.4115 12.2851 22.3486 12.5127 22.2792C13.0005 22.1322 13.4756 22.2635 13.6741 22.6769C14.015 23.3871 14.5046 23.9863 14.9652 24.6095C15.4521 25.2689 16.0224 25.8422 16.7015 26.2981C17.3824 26.7549 18.1304 27.0739 18.8875 27.3643C19.3435 27.5391 19.8268 27.6186 20.32 27.6611C20.8731 27.7092 21.4189 27.6676 21.9684 27.6593C22.6121 27.651 23.2223 27.4827 23.8243 27.3107C24.5787 27.0952 25.285 26.7484 25.9278 26.2731C25.9514 26.2574 25.9749 26.2398 25.9976 26.2223C26.198 26.0706 26.3966 25.918 26.5915 25.7599C26.9995 25.4325 27.393 25.0876 27.7538 24.7048C27.7965 24.6604 27.8382 24.6151 27.8799 24.5689C27.9506 24.4912 28.0195 24.4117 28.0875 24.3312C28.5626 23.7662 28.9624 23.1457 29.2997 22.4864C29.637 21.828 29.9924 21.1742 30.1919 20.4511C30.4031 19.6909 30.5663 18.9206 30.7187 18.1457C30.881 17.3255 30.9889 16.4997 30.9979 15.6675C31.0106 14.5532 30.968 13.4435 30.7948 12.3366ZM2.775 22.9062C2.77046 22.9053 2.76593 22.9034 2.76049 22.9016C2.76321 22.9007 2.76593 22.8988 2.76865 22.8979H2.76774C2.76774 22.8979 2.77409 22.896 2.77772 22.896C2.77681 22.8997 2.7759 22.9025 2.775 22.9062ZM9.53787 20.9291C9.91686 20.9107 10.2161 20.6508 10.6159 20.8034C10.1725 20.9615 9.8135 21.0041 9.87334 21.1215C9.95675 21.2852 9.65664 21.0614 9.53787 20.9291ZM10.6023 23.2826C10.5697 23.2964 10.5271 23.2937 10.4908 23.2872C10.4137 23.2752 10.3366 23.4573 10.2795 23.3177C10.2188 23.1725 10.3865 23.1207 10.4717 23.0921C10.732 23.0024 10.994 22.9192 11.3195 22.7693C11.1291 23.1087 10.8562 23.1827 10.6023 23.2826ZM11.208 22.0194C10.9305 22.0545 10.6712 22.1516 10.4164 22.2635C10.3403 22.2977 10.2723 22.3273 10.2686 22.196C10.2623 21.951 10.1499 21.742 10.0411 21.5339C9.94497 21.3508 9.92683 21.201 10.1807 21.1585C10.3049 21.1381 10.3865 21.0142 10.5198 21.0225C10.6676 21.0309 10.8217 20.8866 10.9632 21.0401C11.1672 21.2602 11.3521 21.4914 11.3739 21.8169C11.3993 21.95 11.3295 22.0046 11.208 22.0194ZM24.9042 1.5035C25.188 1.50627 25.2632 1.75687 25.4173 1.89095C25.2161 1.8216 25.052 1.70046 24.9042 1.5035ZM27.9433 19.371H27.9451C27.9451 19.371 27.9433 19.3793 27.9424 19.383C27.9424 19.3784 27.9424 19.3747 27.9433 19.371ZM30.4893 17.983C30.2898 18.9845 30.0568 19.9711 29.705 20.931C29.4684 21.5783 29.1927 22.2071 28.8364 22.7851C28.5689 23.2197 28.2861 23.6441 27.9669 24.0427C27.8563 24.1814 27.7402 24.3173 27.6206 24.4496C27.5136 24.5661 27.4039 24.6789 27.2887 24.7889C27.0811 24.9878 26.8735 25.1847 26.6595 25.3734C26.4537 25.5555 26.2433 25.7303 26.0203 25.8921C26.0021 25.9069 25.984 25.9199 25.9659 25.9328C25.2959 26.4137 24.5769 26.8243 23.8026 27.049C22.8941 27.3134 21.9557 27.4947 20.9882 27.4549C20.3037 27.4272 19.6155 27.3948 18.9872 27.1285C18.3018 26.839 17.5982 26.5921 16.9798 26.1205C16.395 25.6748 15.7994 25.2393 15.3478 24.6678C14.9525 24.1685 14.4919 23.7079 14.2344 23.0912C14.1166 22.8091 13.9126 22.5539 13.7403 22.245C13.9633 22.2672 14.0404 22.4226 14.1111 22.5705C14.6968 23.7819 15.541 24.7788 16.6108 25.5574C17.6544 26.3175 18.8068 26.8612 20.0925 27.0379C21.0318 27.1673 21.9602 27.1664 22.9086 26.95C23.9077 26.7216 24.8289 26.3397 25.7147 25.8477C25.8507 25.7719 25.9786 25.6859 26.101 25.5916C26.3195 25.4251 26.5208 25.2337 26.7175 25.0377C26.8263 24.9295 26.9333 24.8204 27.0421 24.7131C27.2008 24.5559 27.3549 24.3941 27.5036 24.2267C27.6269 24.0871 27.7466 23.9437 27.8608 23.7967C28.1464 23.4305 28.403 23.0394 28.6197 22.6168C28.9842 21.9047 29.3632 21.2029 29.6044 20.4335C29.9607 19.2933 30.2554 18.1411 30.4158 16.9584C30.4204 16.9279 30.424 16.8974 30.4285 16.8668C30.463 16.595 30.492 16.3213 30.5119 16.0457C30.5917 14.9508 30.5083 13.8643 30.443 12.774C30.3886 11.8706 30.0949 11.0189 29.9697 10.1358C29.8582 9.34422 29.5944 8.60814 29.2897 7.88963C28.8981 6.96583 28.5136 6.03464 27.9034 5.21811C27.6532 4.88336 27.4574 4.49497 27.2234 4.13896C27.0176 3.82547 26.7175 3.5869 26.5353 3.254C26.5253 3.23458 26.4673 3.2429 26.431 3.23828C26.4609 3.37329 26.5298 3.4824 26.6105 3.58135C26.5235 3.48518 26.4392 3.38623 26.3829 3.26879C26.3557 3.24752 26.3304 3.2244 26.3086 3.19759C26.2878 3.1717 26.2678 3.14488 26.2488 3.11714C26.2261 3.09124 26.208 3.0635 26.1935 3.03669C26.1327 2.94329 26.0765 2.84527 26.0221 2.74817C26.0638 2.77776 26.1055 2.80643 26.1481 2.8351C26.0085 2.5808 25.7791 2.40233 25.6041 2.17762C25.5561 2.11566 25.4364 2.06388 25.5144 1.98435C25.6041 1.89373 25.6649 2.03706 25.7102 2.0833C26.1907 2.57432 26.6178 3.11251 27.0412 3.65533C27.2951 3.98083 27.5897 4.30356 27.7774 4.64848C28.1673 5.36699 28.6678 6.01707 28.9869 6.78274C29.3324 7.61036 29.6769 8.43522 29.9453 9.29336C30.1438 9.92587 30.23 10.5833 30.3496 11.2316C30.5536 12.3274 30.7422 13.4324 30.7595 14.5513C30.7776 15.7017 30.715 16.8493 30.4893 17.983ZM29.7023 19.0769C29.7023 19.0769 29.7032 19.0742 29.7032 19.0723H29.7041C29.7041 19.0723 29.7032 19.076 29.7023 19.0769Z" fill="#0E0E33"/>
<path d="M27.9696 21.8271C27.9496 21.8761 27.9451 21.9047 27.9288 21.9204C27.2397 22.5613 26.9686 23.3991 26.8335 24.309C26.7981 24.5522 26.7591 24.7954 26.7174 25.0377C26.5207 25.2337 26.3194 25.4251 26.1009 25.5916C26.1082 25.5648 26.1136 25.5389 26.1181 25.513C26.139 25.3835 26.158 25.2541 26.1743 25.1246C26.2822 24.2933 26.2967 23.461 26.1843 22.6251C26.178 22.5761 26.1707 22.528 26.1635 22.479C26.1381 22.3107 26.1063 22.1442 26.0583 21.9833C26.0111 21.8224 25.9486 21.6662 25.8606 21.5191C25.7963 21.4082 25.721 21.3101 25.6376 21.2232C25.5125 21.0937 25.3692 20.9874 25.2133 20.8986C24.7463 21.0373 24.2921 21.2029 23.8614 21.4433C23.8832 21.4433 23.9049 21.4433 23.9258 21.4414C24.3737 21.3878 24.7944 21.2362 25.2087 21.0679C25.2432 21.054 25.2822 21.0549 25.3184 21.0494C25.3166 21.0891 25.3239 21.1317 25.3112 21.1668C25.0047 21.9741 24.4662 22.5021 23.6012 22.6269C23.273 22.6732 22.9502 22.6094 22.6293 22.5493C22.2611 22.4818 21.8939 22.4069 21.5267 22.3338C21.4923 22.3273 21.4605 22.3088 21.427 22.2959C21.437 22.2737 21.446 22.2506 21.456 22.2284C21.4923 22.2043 21.5331 22.1849 21.5657 22.1563C21.8386 21.9149 22.0408 21.6162 22.2267 21.3055C22.4361 20.9569 22.6846 20.648 23.0382 20.4409C23.5486 20.1441 24.0772 20.1034 24.614 20.353C24.7889 20.4344 24.9458 20.5556 25.1163 20.6499C25.1561 20.6721 25.2205 20.6739 25.2649 20.6591C25.3447 20.6314 25.4209 20.5981 25.4934 20.5583C25.255 20.0081 24.2322 18.7523 23.8451 18.6035C23.8814 19.0196 23.943 19.4348 23.7653 19.8407C23.6683 19.5772 23.5504 19.3294 23.4135 19.0926C23.4099 18.7958 23.4135 18.4962 23.4434 18.2031C23.4652 17.9922 23.5341 17.7879 23.5187 17.5724C23.5142 17.5086 23.4978 17.4476 23.4788 17.3902C23.5232 17.3791 23.5677 17.3653 23.6121 17.3532C24.0146 17.7795 24.4326 18.1938 24.8143 18.6395C25.0129 18.8716 25.1997 19.1121 25.3747 19.3608C25.6013 18.9715 25.808 18.5785 25.9332 18.1439C25.9223 18.155 25.9105 18.1661 25.9014 18.1781C25.6983 18.4352 25.5587 18.7283 25.4309 19.027C25.4209 19.051 25.4 19.0705 25.3846 19.0926C25.3656 19.0714 25.3393 19.0529 25.3284 19.0288C25.0764 18.4611 25.0845 17.9164 25.4662 17.4087C25.6113 17.2164 25.8099 17.0832 26.0048 16.9491C26.2287 16.7947 26.4554 16.6431 26.6812 16.4923C26.702 16.4785 26.7283 16.4711 26.7519 16.46C26.7582 16.4766 26.7646 16.4933 26.7709 16.5099C26.7646 16.5404 26.7537 16.5709 26.7519 16.6024C26.7338 16.865 26.7818 17.1211 26.8444 17.3745C26.9133 17.6593 26.9423 17.9432 26.8661 18.2299C26.7546 18.6432 26.5035 18.9354 26.1 19.0843C25.9694 19.1324 25.8271 19.1518 25.6911 19.1916C25.6594 19.2008 25.6258 19.2323 25.6104 19.2628C25.5632 19.3599 25.5306 19.4598 25.5116 19.5606C25.7609 19.9323 25.9858 20.3216 26.1861 20.7257C26.1934 20.7405 26.2006 20.7553 26.2079 20.7692C26.2133 20.7793 26.2206 20.7867 26.2423 20.8163C26.2532 20.796 26.2641 20.7766 26.2759 20.7571L26.5833 21.1113L26.6005 21.1307C26.5932 21.2214 26.5905 21.312 26.5923 21.4035C26.5941 21.5274 26.6041 21.6523 26.6204 21.778C26.6367 21.9112 26.6558 22.0444 26.6766 22.1803C26.6921 22.2894 26.7102 22.4013 26.7265 22.516C27.1191 22.2413 27.5053 21.9944 27.9696 21.8271Z" fill="#0E0E33"/>
<path d="M27.587 27.3004C27.6187 27.3162 27.6495 27.3374 27.6804 27.3568C27.6785 27.3679 27.6776 27.3809 27.6767 27.392C27.6341 27.3948 27.5915 27.3994 27.5498 27.4003C27.2714 27.4003 26.9913 27.379 26.7147 27.4059C26.3883 27.4391 26.1707 27.6306 26.09 27.9681C25.8607 28.9178 25.6295 29.8665 25.3983 30.8153C25.3357 31.0742 25.2759 31.3332 25.2133 31.5912C25.1788 31.7317 25.1108 31.8529 24.9993 31.9435C24.886 32.0378 24.8053 32.0147 24.789 31.8695C24.7736 31.7243 24.7717 31.5717 24.7953 31.4284C24.8815 30.8911 24.9776 30.3567 25.0746 29.8203C25.1027 29.6668 25.109 29.5142 25.041 29.3737C24.8434 28.9649 24.6376 28.5599 24.4326 28.1549C24.39 28.0707 24.3365 27.9921 24.2948 27.9071C24.2803 27.8784 24.2885 27.8386 24.2858 27.8044C24.3211 27.8164 24.3646 27.8192 24.3882 27.8433C24.585 28.043 24.8162 28.1845 25.0791 28.2705C25.3094 28.3463 25.42 28.2917 25.4808 28.0532C25.5705 27.7018 25.6539 27.3485 25.7374 26.9962C25.7745 26.8381 25.8108 26.6809 25.848 26.5237C25.8498 26.5191 25.8498 26.5154 25.8507 26.5107C25.8761 26.4617 25.8924 26.4081 25.8987 26.3545C25.9096 26.3276 25.9196 26.3008 25.9278 26.2731C25.9695 26.151 25.9967 26.0216 26.0202 25.8921C26.2433 25.7303 26.4536 25.5555 26.6594 25.3733C26.6377 25.5019 26.6141 25.6313 26.5914 25.7599C26.5434 26.0289 26.4944 26.298 26.4464 26.5671C26.4282 26.6735 26.4545 26.7456 26.5497 26.7918C26.7238 26.8769 26.8988 26.9629 27.0738 27.0498C27.2451 27.1321 27.4156 27.2172 27.587 27.3004Z" fill="#0E0E33"/>
</svg>
