<svg width="59" height="59" viewBox="0 0 59 59" fill="none" xmlns="http://www.w3.org/2000/svg">
<path d="M29.0248 58.1659C23.7601 58.1659 18.4903 58.2016 13.2256 58.1557C5.74174 58.0945 0.247446 52.9332 0.125011 45.4411C-0.0484392 34.6593 -0.0331243 23.8725 0.11992 13.0908C0.232152 5.27228 5.66522 0.070127 13.4501 0.034426C24.0662 -0.0114753 34.6824 -0.0114753 45.3036 0.034426C52.8436 0.0650269 58.3379 5.52219 58.3838 13.0602C58.4501 23.6736 58.4603 34.287 58.394 44.9055C58.3481 52.872 52.9915 58.1404 45.0791 58.1863C42.3601 58.2016 39.641 58.1914 36.927 58.1965C34.2946 58.1965 31.6623 58.1965 29.0299 58.1965C29.0299 58.1863 29.0299 58.1761 29.0299 58.1659H29.0248ZM50.451 29.3603C50.451 26.2186 50.4714 23.0769 50.451 19.9352C50.3949 12.9429 45.3954 7.60815 38.3758 7.39394C32.2694 7.20524 26.1425 7.19503 20.0361 7.40414C13.144 7.64385 8.15472 12.9684 8.09861 19.8281C8.04759 26.1115 8.04249 32.3949 8.09861 38.6732C8.14962 45.4053 13.3888 50.8268 20.1636 50.9849C26.2751 51.1277 32.3918 51.1124 38.5033 50.9645C45.222 50.7962 50.4 45.2931 50.4459 38.5252C50.4663 35.4703 50.4459 32.4102 50.4561 29.3552L50.451 29.3603Z" fill="#0E0E33"/>
<path d="M47.2273 29.3144C47.2273 32.2878 47.2681 35.2612 47.2222 38.2345C47.1405 43.5846 43.5287 47.476 38.1824 47.6188C32.0708 47.7769 25.944 47.7514 19.8324 47.5933C15.3941 47.476 11.7109 44.1099 11.4813 39.4892C11.1446 32.7111 11.114 25.8973 11.4303 19.1192C11.6751 13.9476 15.6084 10.7549 20.8425 10.7192C26.3674 10.6886 31.8923 10.6835 37.4121 10.709C43.3196 10.7345 47.1048 14.473 47.2171 20.3942C47.2732 23.3676 47.2273 26.341 47.2273 29.3144ZM40.83 28.7483C40.779 22.0314 35.9428 17.4055 29.0507 17.4871C22.5974 17.5636 17.6643 22.7301 17.7153 29.3552C17.7612 35.6539 22.9545 40.7642 29.2956 40.754C35.7745 40.7438 40.881 35.4244 40.83 28.7483ZM41.0392 19.9658C42.687 19.8281 43.7532 19.0223 43.7889 17.3086C43.8246 15.6052 42.8196 14.6107 41.1667 14.5444C39.473 14.4781 38.4426 15.544 38.4017 17.1709C38.366 18.7928 39.3302 19.7975 41.0341 19.9658H41.0392Z" fill="#0E0E33"/>
<path d="M21.7095 28.9982C21.7605 24.8263 25.0203 21.4959 29.0709 21.4857C33.8612 21.4755 36.9118 24.403 36.8455 28.9421C36.7792 33.3486 33.3459 36.8269 29.1525 36.7402C24.9591 36.6586 21.6635 33.2262 21.7146 28.9982H21.7095Z" fill="#0E0E33"/>
</svg>
