<svg width="58" height="58" viewBox="0 0 58 58" fill="none" xmlns="http://www.w3.org/2000/svg">
<path d="M29.3308 0.0240968C34.9885 0.0240968 40.6462 -0.021533 46.3089 0.0342368C53.2238 0.100147 57.9284 4.7696 57.9588 11.6698C58.0146 23.2395 58.0095 34.8143 57.9689 46.384C57.9487 53.0815 53.2187 57.8067 46.5015 57.974C42.2194 58.0788 40.0834 56.0254 40.0936 51.814C40.1037 47.0837 40.1341 42.3534 40.0682 37.6231C40.0479 36.2238 40.2254 35.5292 41.9389 35.5089C47.7943 35.4329 47.6574 35.3315 48.428 29.572C48.7321 27.2955 48.2962 26.4235 45.9844 26.7936C45.736 26.8342 45.4775 26.819 45.224 26.7936C43.5814 26.5959 41.0416 27.6099 40.4636 26.317C39.47 24.1014 39.7336 21.318 40.4738 18.8895C41.0669 16.9477 42.9782 16.8869 44.7069 16.8412C47.5729 16.7669 49.0093 15.2712 49.016 12.3543C49.0228 10.0356 47.8957 8.83742 45.6346 8.75968C44.4534 8.71912 43.2722 8.69884 42.0859 8.70898C35.4042 8.78503 31.2421 12.8968 31.0545 19.6246C31.0038 21.3991 30.9683 23.1736 31.0646 24.9431C31.1457 26.4134 30.5374 26.9508 29.1433 26.8037C28.8948 26.7784 28.6312 26.7784 28.3828 26.8139C26.7707 27.0572 24.1903 25.9571 23.7289 27.402C22.9938 29.6987 23.445 32.4061 23.5718 34.9309C23.6174 35.8587 24.6364 35.4633 25.2498 35.5495C27.1306 35.803 29.6502 34.6115 30.7503 36.1274C31.6426 37.3594 31.0241 39.7068 31.0291 41.5574C31.0494 46.3739 30.9835 51.1853 31.0798 56.0018C31.1103 57.5735 30.5779 58.0196 29.052 57.9993C23.1409 57.9284 17.2247 58.05 11.3186 57.9486C4.79404 57.8371 0.124947 53.2437 0.0691817 46.7288C-0.0271404 34.9056 -0.0220686 23.0773 0.0793231 11.2541C0.135089 4.73411 4.81432 0.140706 11.3338 0.0443767C17.3311 -0.041813 23.3284 0.0240968 29.3258 0.0240968H29.3308Z" fill="#0E0E33"/>
</svg>
