<svg width="59" height="59" viewBox="0 0 59 59" fill="none" xmlns="http://www.w3.org/2000/svg">
<path d="M29.5971 19.2953C32.4649 19.2649 34.8606 21.66 34.8657 24.5625C34.8708 27.4651 32.5309 29.8348 29.6327 29.8653C26.7548 29.8957 24.354 27.5158 24.3387 24.6285C24.3286 21.6752 26.6431 19.3258 29.5971 19.2953Z" fill="#0E0E33"/>
<path d="M30.6423 9.6947C35.3119 9.92305 39.6618 12.4958 42.3316 17.626C43.9203 20.6807 44.3771 23.9385 43.2757 27.3028C42.6057 29.3427 41.687 31.276 40.6515 33.1485C37.5452 38.7556 33.7689 43.9011 29.8251 48.9348C29.5002 49.3509 29.3733 49.1429 29.1602 48.8689C26.871 45.9663 24.653 43.0131 22.5821 39.9481C20.3843 36.7005 18.3033 33.3819 16.7095 29.7842C15.6335 27.3586 14.9229 24.8874 15.2782 22.1624C16.2121 15.0583 22.3486 9.65411 30.6423 9.68963V9.6947ZM29.6424 32.5446C34.114 32.4888 37.6264 28.8961 37.5757 24.4256C37.5249 20.0667 33.8856 16.5603 29.4647 16.6111C25.0438 16.6618 21.5568 20.3103 21.6278 24.8163C21.6938 29.0687 25.3534 32.5954 29.6474 32.5446H29.6424Z" fill="#0E0E33"/>
<path d="M0.0157814 11.6483C0.036087 4.7776 4.80722 0.0381329 11.6746 0.012761C17.4203 -0.0126109 23.1711 0.00768663 28.9218 0.00768663C34.5051 0.012761 40.0832 0.00261226 45.6665 0.0178354C53.4272 0.0330585 57.9903 4.52895 58.0106 12.2572C58.0461 23.502 58.041 34.7418 58.0207 45.9866C58.0055 53.3038 53.3156 57.9773 45.9406 57.9976C34.6066 58.0281 23.2776 58.0332 11.9436 58.0078C4.6854 57.9875 0.0563736 53.385 0.0309944 46.1388C-0.00453568 34.6403 -0.00959396 23.1418 0.0157814 11.6483ZM14.314 30.0734C16.0549 34.1938 18.405 37.9742 20.9124 41.6632C23.2624 45.124 25.78 48.4527 28.4295 51.6902C29.1045 52.5173 29.876 52.5731 30.5105 51.7968C34.9619 46.3469 39.1239 40.6889 42.55 34.5236C43.9661 31.9712 45.2401 29.3477 45.9051 26.4756C46.6156 23.3955 46.1487 20.4067 44.9001 17.5701C42.3521 11.8005 37.8905 8.4413 31.6576 7.4518C30.9419 7.34016 30.2161 7.28434 29.6121 7.31479C21.2626 7.33001 14.1922 13.47 12.9943 21.5433C12.5476 24.5524 13.1618 27.3383 14.319 30.0632L14.314 30.0734Z" fill="#0E0E33"/>
</svg>
