<?xml version="1.0" encoding="UTF-8"?>
<svg xmlns="http://www.w3.org/2000/svg" version="1.1" viewBox="0 0 75 76">
  <defs>
    <style>
      .cls-1 {
        fill: #1a1731;
      }
    </style>
  </defs>
  <!-- Generator: Adobe Illustrator 28.6.0, SVG Export Plug-In . SVG Version: 1.2.0 Build 709)  -->
  <g>
    <g id="Capa_1">
      <g>
        <g>
          <g>
            <path class="cls-1" d="M55.25,39.66c-.04.18-.07.36-.13.53-.78,2.32-2.17,4.21-4.16,5.62-1.55,1.1-3.14,2.15-4.75,3.16-1.09.68-2.16.44-3.16-.29-1.15-.83-2.31-1.65-3.5-2.44-1.23-.82-2.22-1.87-2.91-3.17-.41-.77-.34-1.57.03-2.35.17-.34.43-.53.83-.48,1.45.17,2.9.34,4.36.49.88.09,1.6.46,2.18,1.11.28.31.55.62.84.9.43.42.99.63,1.54.38,1.76-.8,3.64-1.18,5.48-1.71,1.08-.31,2.04-.83,2.89-1.58.1-.09.24-.16.35-.24.04.02.07.04.1.06h0Z"/>
            <path class="cls-1" d="M52.15,15.45c.9.37,1.8.73,2.7,1.1,1.14.49,1.79,1.38,2.07,2.57.04.14.06.29.09.43.1.52.15.55.62.38.3-.11.6-.21.91-.31,1.05-.35,1.75-.14,2.41.75.59.8.96,1.71,1.05,2.69.15,1.49.27,2.99.32,4.5.05,1.61.32,3.15.99,4.64,1.72,3.87-.78,7.69-5.02,7.74-.39,0-.79-.04-1.19-.1-.32-.05-.4-.23-.29-.58.48-1.41,1.02-2.82,1.35-4.26.68-2.99.22-5.89-1.02-8.69-.77-1.73-1.77-3.26-3.4-4.28-.65-.41-1.41-.66-2.04-1.09-.92-.63-1.77-1.35-2.64-2.05-.47-.38-.95-.66-1.55-.78-.54-.1-1.06-.28-1.59-.37-.36-.06-.74-.03-1.1-.02-.25,0-.51.08-.75.04-.36-.05-.47-.37-.25-.65,1.21-1.52,2.79-2.4,4.69-2.74.63-.12,1.21.13,1.78.34.62.22,1.25.45,1.88.67,0,.02-.01.03-.02.05h.01Z"/>
            <path class="cls-1" d="M42.11,39.4c-.32.05-.65.18-.97.14-2.29-.24-4.59-.43-6.76-1.3-.42-.17-.84-.41-1.21-.68-.65-.49-.9-1.17-.92-1.99-.01-.59-.08-1.2-.23-1.76-.3-1.14-.1-2.18.45-3.19.46-.84.88-1.7,1.32-2.55.11-.2.21-.48.48-.36.16.07.31.32.34.51.15.95.13,1.9-.07,2.85-.48,2.3.43,4.07,2.13,5.55.97.85,2.11,1.39,3.29,1.84.71.27,1.43.51,2.14.77v.18s.02.01.02.01Z"/>
            <path class="cls-1" d="M46.5,21.5c.18,0,.37-.04.54-.01,6.16,1,9.45,5.75,10.01,10.41.37,3.09-.87,5.49-3.53,7.1-.56.34-1.28.42-1.93.57-.59.14-1.21.18-1.81.3-.77.16-1.42.53-1.89,1.18-.03.04-.07.08-.11.12-.62.69-1.32.65-1.85-.11-1.09-1.58-1.15-3.02-.04-4.63.87-1.27,1.88-2.44,2.83-3.66.74-.96,1.47-1.93,1.87-3.1.52-1.55.22-3.01-.45-4.45-.67-1.43-1.86-2.33-3.12-3.18-.19-.13-.37-.29-.56-.43.01-.04.03-.08.04-.12h0Z"/>
            <path class="cls-1" d="M46.39,19.35c.9.42,1.54.71,2.17,1.02.12.06.19.25.28.38-.14.08-.29.24-.42.23-.87-.08-1.76-.1-2.6-.32-1.52-.39-2.98-.42-4.35.42-1.23.76-2.25,1.75-3,2.99-1.56,2.58-1.32,5.66.59,8.19.81,1.06,1.8,1.91,2.89,2.67.63.44.8.94.58,1.54-.14.38-.38.52-.78.42-2.94-.72-5.69-3.03-6.12-6.64-.16-1.38-.41-2.76-.65-4.14-.14-.83.09-1.56.54-2.23.81-1.2,1.64-2.39,2.48-3.57,1.14-1.58,2.76-2.08,4.61-1.79,1.36.21,2.7.58,3.79.82h.01Z"/>
            <g>
              <path class="cls-1" d="M43.61,26.73c.51.68.31,1.56-.4,1.89-.53.25-1.28-.22-1.27-.8,0-.11.08-.28.17-.33.11-.05.27-.02.4.02.07.02.12.1.17.16.34.34.67.26.8-.21.06-.22.08-.45.13-.72h0Z"/>
              <path class="cls-1" d="M42.12,29.54c-.81-.18-1.4-.92-1.38-1.73.02-.82.24-1.57.76-2.23.66-.85,1.45-1.01,2.39-.45.77.45,1.32,1.12,1.76,1.87.59.98,1.14,1.99,1.72,2.98.55.94.32,1.85-.1,2.75-.45.95-1.1,1.72-1.99,2.28-.71.44-1.4.44-2.03-.1-1.62-1.37-2.96-2.98-3.8-4.97-.58-1.37-.59-2.7.14-4.04.5-.91.95-1.84,1.69-2.6,1.74-1.78,4.21-1.82,5.98-.08,1.02,1,1.75,2.18,2.1,3.57.15.61.15,1.23-.12,1.8-.11.23-.37.45-.61.54-.31.12-.52-.17-.64-.42-.47-.92-.96-1.84-1.37-2.8-.63-1.47-1.77-2.26-3.26-2.62-.25-.06-.59.04-.83.16-.78.4-1.24,1.11-1.64,1.86-.43.81-.68,1.68-.64,2.61.06,1.03.5,1.87,1.28,2.52.42.35.91.47,1.42.25.44-.19.9-.43,1.27-.75,1.12-.96.92-3.14-.33-3.94-.81-.52-1.92-.15-2.38.79-.47.95-.27,1.87.64,2.74h-.02Z"/>
            </g>
          </g>
          <g>
            <path class="cls-1" d="M65.36,63.54c.07.04.14.08.21.13,0,.03,0,.06-.01.08-.1,0-.19.02-.29.02-.64,0-1.29-.05-1.93.01-.75.08-1.25.51-1.44,1.27-.53,2.15-1.06,4.29-1.59,6.43-.14.59-.28,1.17-.42,1.75-.08.32-.24.59-.5.8-.26.21-.45.16-.49-.17-.04-.33-.04-.67.02-1,.2-1.22.42-2.42.64-3.63.07-.35.08-.69-.08-1.01-.45-.92-.93-1.84-1.4-2.75-.1-.19-.22-.37-.32-.56-.04-.07-.02-.15-.02-.23.08.03.18.04.24.09.45.45.99.77,1.59.97.53.17.79.05.92-.49.2-.79.4-1.59.59-2.39.09-.36.17-.71.26-1.07,0-.01,0-.02,0-.03.06-.11.1-.23.11-.35.03-.06.05-.12.07-.18.1-.28.16-.57.21-.86.52-.37,1-.76,1.47-1.17-.05.29-.1.58-.16.87-.11.61-.22,1.22-.33,1.82-.04.24.02.4.24.51.4.19.8.39,1.21.58.39.18.79.38,1.18.57h0Z"/>
            <path class="cls-1" d="M66.25,51.17c-.05.11-.06.17-.09.21-1.59,1.45-2.21,3.34-2.52,5.4-.08.55-.17,1.1-.27,1.65-.45.44-.92.87-1.42,1.25.02-.06.03-.12.04-.18.05-.29.09-.59.13-.88.25-1.88.28-3.76.03-5.65-.02-.11-.03-.22-.05-.33-.06-.38-.13-.76-.24-1.12-.11-.36-.25-.72-.45-1.05-.15-.25-.32-.47-.52-.67-.29-.29-.62-.53-.98-.74-1.08.31-2.13.69-3.12,1.23h.15c1.03-.12,2-.47,2.96-.84.08-.03.17-.03.25-.04,0,.09.01.18-.02.27-.71,1.82-1.95,3.02-3.94,3.3-.76.1-1.5-.04-2.24-.17-.85-.15-1.7-.32-2.54-.49-.08-.02-.15-.06-.23-.09.02-.05.05-.1.07-.15.08-.06.18-.1.25-.16.63-.55,1.09-1.22,1.52-1.92.48-.79,1.06-1.49,1.87-1.95,1.18-.67,2.4-.76,3.63-.2.4.18.77.46,1.16.67.09.05.24.06.34.02.18-.06.36-.14.53-.23-.55-1.24-2.91-4.08-3.8-4.42.08.94.22,1.88-.18,2.8-.22-.6-.5-1.15-.81-1.69-.01-.67,0-1.35.07-2.01.05-.48.21-.94.17-1.43-.01-.14-.05-.28-.09-.41.1-.03.2-.06.31-.08.93.97,1.89,1.9,2.77,2.91.46.53.89,1.07,1.29,1.63.52-.88,1-1.77,1.29-2.75-.03.03-.05.05-.07.08-.47.58-.79,1.24-1.08,1.92-.02.06-.07.1-.11.15-.05-.05-.1-.09-.13-.14-.58-1.28-.56-2.51.32-3.66.33-.43.79-.74,1.24-1.04.52-.35,1.04-.69,1.56-1.03.05-.03.11-.05.16-.07.02.04.03.08.05.11-.02.07-.04.14-.05.21-.04.59.07,1.17.21,1.75.16.64.22,1.29.05,1.93-.26.94-.84,1.59-1.77,1.93-.3.11-.63.15-.94.24-.07.02-.15.09-.18.16-.11.22-.18.44-.23.67.57.84,1.09,1.72,1.55,2.63.02.04.04.07.05.1.01.02.03.04.08.11.03-.05.05-.09.08-.13l.71.8.04.05c-.02.2-.03.41-.02.62,0,.28.03.56.07.85.04.3.08.6.13.91.04.25.08.5.11.76.9-.62,1.79-1.18,2.87-1.56h-.02Z"/>
          </g>
        </g>
        <path class="cls-1" d="M72.76,29.72c-.49-3.04-1.01-6.06-2.08-8.96-.83-2.24-1.75-4.43-2.98-6.47-1.77-2.94-3.84-5.67-6.36-8.02-1.8-1.68-3.54-3.5-6.04-4.13-.68-.17-1.38-.44-2.12-.21-.4.13-.58.25-.11.61.8.62,1.59,1.27,2.3,2,1,1.04,1.93,2.16,2.88,3.24,1.29,1.47,2.36,3.1,3.42,4.74.81,1.25,1.29,2.67,1.98,3.98,1.01,1.89,1.78,3.86,2.39,5.89.38,1.28.64,2.6.87,3.92.33,1.96.55,3.91.6,5.89.04,1.5-.07,2.99-.14,4.49-.06,1.17-.21,2.31-.42,3.45,0,.02,0,.03-.01.04-.02.08-.03.16-.05.24h0c-.02.11-.05.22-.07.34,0,.01,0,.02,0,.04-.11.54-.23,1.08-.35,1.62-.07.3-.14.6-.21.9-.13.56-.09,1.21-.36,1.68-.73,1.24-1.07,2.68-2,3.8-.3.36-.49.79-.7,1.2-.04.07-.08.14-.12.21-.14.25-.3.48-.52.68-.13.12-.26.24-.39.35-.11.09-.22.18-.32.28-.17.16-.35.32-.5.5-.63.76-1.33,1.42-2.09,1.98-.52.38-1.07.72-1.65,1.01h-.01c-.72.37-1.47.66-2.26.89-1.49.43-3.05.82-4.57.71-2.45-.18-4.92-.52-7.21-1.56-1.78-.82-3.51-1.74-5.07-2.92-1.38-1.05-2.67-2.23-3.76-3.59-.6-.74-1.45-.91-2.23-.77-1.49.28-2.94.77-4.36,1.31-.25.09-.36.15-.56-.12-.58-.76-1.46-1.02-2.21-.76-.22.08-.31.3-.6.32-1.62.11-3.21.45-4.8.8-1.46.33-2.91.71-4.38,1.03-1.23.27-2.48.4-3.7.7-1.6.39-3.17.92-4.77,1.31-1.1.27-2.09.79-3.01,1.34-.92.55-1.48,1.59-1.92,2.62-.4.96-.55,2.02-.18,2.9.87,2.12,3.12,3.15,5.45,2.81,1.13-.16,2.2-.52,3.29-.87,1.91-.62,3.78-1.37,5.64-2.11,1.78-.71,3.53-1.49,5.28-2.25,1.65-.71,3.32-1.35,5.01-1.91.96-.32,1.59-.75,1.84-1.72.06-.24.27-.44.53-.52.53-.15,1.06-.3,1.58-.45,1.12-.33,2.22-.04,2.68.9.79,1.6,1.92,2.96,2.97,4.37,1.12,1.49,2.44,2.78,4,3.82,1.57,1.03,3.3,1.75,5.04,2.41,1.05.39,2.17.57,3.3.67,1.27.11,2.53.02,3.8,0,1.48-.02,2.89-.4,4.28-.79,1.74-.49,3.37-1.27,4.85-2.35.06-.04.11-.08.16-.11.46-.34.92-.69,1.37-1.04.94-.74,1.85-1.52,2.68-2.39.1-.1.19-.2.29-.31.16-.17.32-.36.48-.54,1.09-1.28,2.02-2.68,2.8-4.17.78-1.49,1.59-2.96,2.05-4.6.49-1.72.86-3.46,1.22-5.21.37-1.85.62-3.72.64-5.6.03-2.52-.07-5.03-.47-7.53h0ZM8.17,53.61s-.02,0-.04-.01c0,0,.01,0,.02-.01h.03s0,.02,0,.02h0ZM23.76,49.14c.87-.04,1.56-.63,2.48-.29-1.02.36-1.85.45-1.71.72.19.37-.5-.14-.77-.43h0ZM26.21,54.46c-.08.03-.17.03-.26.01-.18-.03-.36.38-.49.07-.14-.33.25-.44.44-.51.6-.2,1.21-.39,1.95-.73-.44.77-1.07.94-1.66,1.16h0ZM27.6,51.6c-.64.08-1.24.3-1.82.55-.17.08-.33.14-.34-.15-.02-.55-.28-1.03-.53-1.5-.22-.41-.27-.75.32-.85.29-.05.48-.33.78-.31.34.02.69-.31,1.02.04.47.5.89,1.02.95,1.76.06.3-.1.42-.38.46h0ZM59.18,5.24c.65,0,.83.57,1.18.87-.47-.16-.84-.43-1.18-.87ZM66.18,45.61h0s0,.02,0,.03v-.03h0ZM72.05,42.48c-.46,2.26-1,4.49-1.81,6.66-.55,1.46-1.18,2.88-2,4.19-.62.98-1.27,1.94-2,2.84-.26.31-.52.62-.8.92-.25.27-.5.52-.77.77-.48.45-.96.89-1.45,1.32-.48.41-.96.81-1.47,1.17-.04.04-.08.06-.13.09-1.54,1.09-3.2,2.01-4.99,2.52-2.1.6-4.26,1.01-6.49.92-1.58-.06-3.16-.14-4.61-.74-1.58-.65-3.2-1.21-4.63-2.28-1.35-1.01-2.72-1.99-3.76-3.29-.91-1.13-1.97-2.17-2.57-3.56-.27-.64-.74-1.22-1.14-1.91.52.05.69.4.85.74,1.35,2.74,3.3,4.99,5.76,6.75,2.41,1.72,5.06,2.95,8.03,3.35,2.17.29,4.31.29,6.49-.2,2.3-.52,4.43-1.38,6.47-2.49.31-.17.61-.37.89-.58.51-.38.97-.81,1.42-1.25.25-.25.5-.49.75-.74.37-.36.72-.72,1.06-1.1.29-.32.56-.64.82-.97.66-.83,1.25-1.71,1.75-2.67.84-1.61,1.71-3.19,2.27-4.94.82-2.58,1.5-5.18,1.87-7.85.01-.07.02-.14.03-.2.08-.61.15-1.23.19-1.85.18-2.47-.01-4.93-.16-7.39-.13-2.04-.8-3.97-1.09-5.96-.26-1.79-.86-3.45-1.57-5.07-.9-2.09-1.79-4.19-3.19-6.04-.58-.76-1.03-1.64-1.57-2.44-.48-.71-1.17-1.25-1.58-2-.03-.05-.16-.03-.24-.04.07.31.23.55.41.78-.2-.22-.39-.44-.53-.71-.06-.05-.12-.1-.17-.16-.05-.06-.09-.12-.14-.18-.05-.06-.09-.12-.13-.18-.14-.21-.27-.43-.39-.65.1.07.19.13.29.19-.32-.57-.85-.98-1.25-1.49-.11-.14-.39-.26-.2-.43.2-.2.35.12.45.22,1.11,1.11,2.09,2.33,3.07,3.55.59.74,1.26,1.47,1.7,2.24.9,1.62,2.05,3.09,2.79,4.82.8,1.87,1.59,3.74,2.21,5.67.46,1.43.65,2.92.93,4.38.47,2.48.9,4.97.95,7.5.04,2.6-.1,5.19-.62,7.76h.01ZM70.24,44.95h0s0,0,0,0Z"/>
      </g>
    </g>
  </g>
</svg>