<svg width="59" height="59" viewBox="0 0 59 59" fill="none" xmlns="http://www.w3.org/2000/svg">
<path d="M58.2994 29.5155C58.2994 35.2073 58.3249 40.899 58.2892 46.5959C58.2433 53.5474 53.5193 58.3211 46.6222 58.3415C34.9806 58.3772 23.334 58.3823 11.6924 58.3568C4.96357 58.3415 0.0712592 53.5576 0.0406504 46.8356C-0.0205672 35.0288 -0.0103643 23.2168 0.0559548 11.4049C0.0916651 4.89709 4.77481 0.138648 11.32 0.0825459C23.2166 -0.0194571 35.1183 -0.0296574 47.015 0.0672455C53.6112 0.118247 58.2484 5.02459 58.2994 11.6752C58.3198 14.6486 58.3045 17.622 58.3045 20.5953C58.3045 23.5687 58.3045 26.5421 58.3045 29.5155H58.2994ZM29.7669 50.8749C30.4811 50.8137 31.7667 50.7984 33.0165 50.574C45.1631 48.3759 52.948 36.7373 50.5656 24.3848C48.326 12.787 36.2458 4.94299 24.5787 7.51346C12.5801 10.1553 4.69829 22.1764 8.01935 33.9832C9.32532 38.6193 9.01413 42.7249 7.96323 47.0855C7.78468 47.8301 7.69285 48.5901 7.49389 49.3296C7.07557 50.8902 7.66734 51.4308 9.18248 51.0687C10.8354 50.676 12.4831 50.2782 14.1258 49.8498C17.0744 49.0797 19.916 48.4014 22.9513 49.9467C24.8083 50.8902 27.0733 50.8647 29.772 50.88L29.7669 50.8749Z" fill="#0E0E33"/>
<path d="M30.787 11.8996C36.4394 12.1495 41.8368 15.4442 44.7293 22.0081C47.6524 28.6434 46.6883 35.0645 41.7449 40.4757C36.8934 45.785 30.7054 47.5802 23.9204 45.1373C20.7779 44.005 17.9772 43.648 14.9316 44.7293C13.6359 45.1883 13.1257 44.9078 13.5746 43.5103C14.6 40.3329 14.1256 37.436 12.988 34.2229C9.10065 23.2372 17.5742 11.8333 30.787 11.8996ZM34.5978 39.5985C37.1893 39.8688 38.9799 38.6142 40.3624 36.5741C40.8063 35.9162 41.1328 35.243 40.6583 34.4576C39.9441 33.2692 34.8171 32.035 33.9397 33.0499C32.2052 35.0594 30.685 34.2892 29.1494 32.9989C27.7261 31.8004 26.3691 30.5151 25.0223 29.2299C23.8439 28.1028 23.497 26.9348 24.6295 25.4354C25.5529 24.2165 24.0684 19.3101 22.7216 18.6573C21.9512 18.285 21.2523 18.5043 20.6198 19.0602C18.7883 20.6719 17.7425 22.5385 18.2221 25.109C19.273 30.7854 26.9966 38.4204 32.8276 39.4302C33.4091 39.5322 34.0111 39.5424 34.6029 39.5934L34.5978 39.5985Z" fill="#0E0E33"/>
</svg>
