<?xml version="1.0" encoding="UTF-8"?>
<svg xmlns="http://www.w3.org/2000/svg" version="1.1" viewBox="0 0 841.89 595.28">
  <defs>
    <style>
      .cls-1 {
        fill: #1a1731;
      }

      .cls-2 {
        fill: #f1f1cc;
      }
    </style>
  </defs>
  <!-- Generator: Adobe Illustrator 28.6.0, SVG Export Plug-In . SVG Version: 1.2.0 Build 709)  -->
  <g>
    <g id="Capa_1">
      <rect class="cls-2" x=".81" y="0" width="841.89" height="595.28"/>
      <g>
        <g>
          <g>
            <path class="cls-1" d="M435.21,294.34c-.08.35-.14.7-.25,1.04-1.52,4.54-4.24,8.23-8.14,10.99-3.04,2.15-6.15,4.2-9.3,6.18-2.13,1.33-4.22.86-6.19-.57-2.25-1.63-4.53-3.23-6.84-4.78-2.41-1.61-4.34-3.65-5.7-6.2-.8-1.51-.67-3.07.06-4.59.33-.67.84-1.03,1.63-.94,2.84.33,5.68.67,8.53.96,1.73.17,3.13.9,4.27,2.18.54.6,1.07,1.21,1.65,1.77.85.83,1.93,1.24,3.01.75,3.45-1.56,7.13-2.31,10.73-3.34,2.11-.61,4-1.63,5.65-3.09.2-.18.46-.31.69-.47.07.04.14.08.2.12Z"/>
            <path class="cls-1" d="M429.14,246.97c1.76.72,3.53,1.42,5.28,2.16,2.24.95,3.51,2.7,4.05,5.03.07.28.12.56.17.84.19,1.01.29,1.07,1.22.74.59-.21,1.18-.41,1.78-.6,2.06-.69,3.43-.27,4.72,1.47,1.16,1.56,1.87,3.34,2.06,5.26.29,2.92.52,5.86.62,8.8.1,3.16.63,6.16,1.93,9.09,3.36,7.58-1.53,15.04-9.83,15.15-.77,0-1.55-.08-2.32-.2-.63-.1-.79-.45-.56-1.13.93-2.76,1.99-5.51,2.64-8.34,1.34-5.86.43-11.53-2-17-1.5-3.38-3.47-6.37-6.66-8.37-1.27-.8-2.75-1.29-3.99-2.13-1.8-1.23-3.47-2.64-5.17-4.02-.91-.74-1.86-1.3-3.03-1.52-1.05-.19-2.07-.55-3.12-.72-.7-.12-1.44-.05-2.16-.03-.49,0-.99.15-1.47.08-.7-.09-.92-.72-.48-1.27,2.36-2.97,5.46-4.69,9.17-5.37,1.24-.23,2.36.26,3.48.67,1.22.44,2.45.88,3.68,1.32-.01.03-.02.06-.03.09Z"/>
            <path class="cls-1" d="M409.5,293.84c-.63.1-1.28.35-1.9.28-4.48-.47-8.99-.85-13.22-2.55-.83-.33-1.64-.8-2.36-1.34-1.27-.95-1.77-2.29-1.8-3.89-.02-1.15-.15-2.34-.45-3.45-.59-2.23-.2-4.26.88-6.25.9-1.64,1.73-3.33,2.58-5,.21-.4.41-.93.93-.71.31.13.6.63.66.99.3,1.86.26,3.72-.13,5.58-.94,4.5.84,7.96,4.16,10.86,1.9,1.66,4.12,2.72,6.44,3.6,1.38.53,2.79,1,4.18,1.5l.02.36Z"/>
            <path class="cls-1" d="M418.08,258.81c.35-.01.72-.08,1.06-.02,12.06,1.95,18.49,11.26,19.59,20.38.73,6.04-1.71,10.74-6.9,13.9-1.09.66-2.5.83-3.78,1.12-1.16.27-2.37.35-3.54.59-1.5.31-2.77,1.03-3.69,2.3-.06.08-.14.16-.21.23-1.22,1.36-2.59,1.28-3.63-.22-2.14-3.1-2.26-5.91-.07-9.07,1.71-2.48,3.68-4.77,5.53-7.16,1.45-1.88,2.88-3.77,3.65-6.06,1.02-3.03.44-5.89-.89-8.7-1.32-2.79-3.64-4.56-6.1-6.22-.38-.26-.73-.56-1.09-.84.02-.08.05-.16.07-.24Z"/>
            <path class="cls-1" d="M417.88,254.61c1.76.82,3.01,1.38,4.24,2,.24.12.37.49.54.74-.28.16-.57.47-.83.45-1.7-.15-3.45-.19-5.09-.62-2.98-.77-5.83-.83-8.52.83-2.4,1.49-4.4,3.43-5.87,5.85-3.06,5.04-2.59,11.08,1.16,16.02,1.58,2.08,3.53,3.73,5.65,5.22,1.23.86,1.57,1.84,1.14,3.01-.27.74-.75,1.02-1.53.83-5.76-1.4-11.13-5.92-11.98-12.99-.32-2.71-.81-5.41-1.28-8.1-.28-1.63.18-3.06,1.05-4.37,1.58-2.35,3.2-4.68,4.86-6.98,2.24-3.1,5.4-4.08,9.03-3.51,2.67.42,5.28,1.14,7.41,1.61Z"/>
            <g>
              <path class="cls-1" d="M412.44,269.05c1,1.33.6,3.06-.78,3.69-1.03.48-2.5-.43-2.49-1.57,0-.22.15-.55.33-.64.21-.1.53-.03.79.03.13.03.23.2.34.31.66.67,1.31.51,1.56-.42.11-.43.16-.88.25-1.4Z"/>
              <path class="cls-1" d="M409.52,274.55c-1.58-.35-2.74-1.81-2.71-3.39.03-1.6.47-3.08,1.48-4.36,1.3-1.67,2.83-1.97,4.67-.89,1.5.88,2.58,2.19,3.45,3.66,1.15,1.92,2.23,3.89,3.36,5.83,1.07,1.84.63,3.62-.2,5.38-.88,1.85-2.16,3.37-3.9,4.47-1.39.87-2.73.86-3.98-.19-3.18-2.69-5.79-5.84-7.43-9.72-1.13-2.68-1.15-5.28.27-7.9.97-1.79,1.86-3.6,3.31-5.08,3.4-3.48,8.24-3.56,11.7-.15,1.99,1.96,3.42,4.26,4.1,6.99.29,1.2.3,2.41-.23,3.52-.21.45-.73.88-1.2,1.06-.61.23-1.01-.33-1.26-.82-.92-1.81-1.88-3.61-2.68-5.48-1.23-2.87-3.46-4.43-6.37-5.13-.49-.12-1.15.07-1.62.32-1.52.79-2.43,2.17-3.2,3.64-.84,1.59-1.34,3.28-1.25,5.1.11,2.01.97,3.65,2.51,4.93.82.69,1.79.92,2.78.49.87-.38,1.76-.84,2.48-1.46,2.19-1.88,1.8-6.15-.65-7.72-1.58-1.02-3.75-.3-4.66,1.55-.92,1.86-.52,3.66,1.26,5.36Z"/>
            </g>
          </g>
          <g>
            <path class="cls-1" d="M455,341.08c.14.07.28.16.42.25,0,.05-.01.11-.02.16-.19.01-.38.03-.57.04-1.26,0-2.52-.09-3.77.02-1.47.15-2.45.99-2.82,2.49-1.03,4.2-2.08,8.4-3.12,12.59-.28,1.15-.55,2.29-.83,3.43-.16.62-.46,1.16-.97,1.56-.51.42-.88.31-.95-.33-.07-.64-.08-1.32.03-1.95.39-2.38.82-4.74,1.26-7.11.13-.68.16-1.35-.15-1.98-.89-1.81-1.82-3.6-2.74-5.39-.19-.37-.43-.72-.62-1.1-.07-.13-.03-.3-.04-.45.16.05.36.07.46.17.89.88,1.93,1.51,3.12,1.89,1.04.34,1.54.09,1.81-.96.4-1.55.78-3.12,1.16-4.67.17-.7.33-1.39.5-2.09,0-.02,0-.04.01-.06.11-.22.19-.45.22-.69.05-.12.09-.24.13-.36.19-.54.31-1.11.42-1.69,1.01-.72,1.96-1.49,2.88-2.29-.1.57-.2,1.14-.31,1.71-.22,1.19-.44,2.38-.65,3.57-.08.47.04.79.47.99.79.38,1.57.76,2.36,1.14.77.36,1.54.74,2.31,1.11Z"/>
            <path class="cls-1" d="M456.73,316.87c-.09.22-.11.34-.18.41-3.11,2.83-4.33,6.54-4.94,10.56-.16,1.08-.34,2.15-.52,3.22-.89.87-1.8,1.71-2.78,2.45.03-.12.06-.23.08-.35.09-.57.18-1.15.25-1.72.49-3.68.55-7.36.05-11.06-.03-.22-.06-.43-.09-.65-.11-.74-.26-1.48-.47-2.19-.21-.71-.49-1.4-.89-2.05-.29-.49-.63-.92-1.01-1.31-.56-.57-1.21-1.04-1.91-1.44-2.11.61-4.16,1.35-6.1,2.41.1,0,.2,0,.29,0,2.02-.24,3.92-.91,5.79-1.65.16-.06.33-.06.49-.08,0,.18.02.36-.03.52-1.38,3.57-3.81,5.91-7.71,6.46-1.48.2-2.94-.08-4.38-.34-1.66-.3-3.32-.63-4.97-.95-.16-.03-.3-.11-.45-.17.04-.1.09-.2.13-.3.16-.11.35-.19.49-.32,1.23-1.07,2.14-2.39,2.98-3.76.94-1.54,2.07-2.91,3.66-3.82,2.3-1.31,4.69-1.49,7.11-.39.79.36,1.5.9,2.27,1.31.18.1.47.11.67.04.36-.12.7-.27,1.03-.45-1.08-2.43-5.69-7.99-7.44-8.65.16,1.84.44,3.68-.36,5.47-.44-1.17-.97-2.26-1.59-3.31-.02-1.31,0-2.64.14-3.93.1-.93.41-1.84.34-2.79-.02-.28-.09-.55-.18-.81.2-.05.4-.11.6-.16,1.82,1.89,3.7,3.72,5.42,5.69.9,1.03,1.74,2.09,2.53,3.19,1.02-1.72,1.96-3.46,2.52-5.38-.05.05-.1.1-.14.15-.92,1.14-1.55,2.43-2.12,3.75-.04.11-.14.19-.21.29-.09-.09-.2-.18-.25-.28-1.14-2.51-1.1-4.92.62-7.17.65-.85,1.55-1.44,2.43-2.03,1.01-.68,2.03-1.35,3.05-2.02.09-.06.21-.09.32-.14.03.07.06.15.09.22-.03.13-.08.27-.09.41-.08,1.16.14,2.29.42,3.42.31,1.26.44,2.52.1,3.78-.5,1.83-1.64,3.12-3.46,3.78-.59.21-1.23.3-1.84.47-.14.04-.29.18-.36.31-.21.43-.36.87-.45,1.32,1.12,1.64,2.14,3.37,3.04,5.15.03.07.07.13.1.19.02.04.06.08.16.21.05-.09.1-.18.15-.26l1.39,1.57.08.09c-.03.4-.05.8-.04,1.21,0,.55.05,1.1.13,1.66.07.59.16,1.18.25,1.78.07.48.15.98.22,1.48,1.77-1.21,3.51-2.31,5.61-3.05Z"/>
          </g>
        </g>
        <path class="cls-1" d="M469.47,274.89c-.95-5.95-1.97-11.85-4.07-17.54-1.62-4.38-3.43-8.66-5.84-12.66-3.46-5.76-7.51-11.09-12.44-15.69-3.52-3.29-6.92-6.84-11.82-8.08-1.33-.34-2.71-.87-4.14-.42-.79.25-1.14.48-.21,1.2,1.57,1.21,3.12,2.49,4.5,3.91,1.96,2.03,3.78,4.22,5.64,6.35,2.52,2.88,4.62,6.07,6.69,9.27,1.59,2.45,2.52,5.23,3.88,7.78,1.97,3.69,3.48,7.55,4.67,11.53.75,2.51,1.26,5.08,1.7,7.67.65,3.83,1.08,7.65,1.17,11.53.07,2.94-.13,5.86-.28,8.79-.11,2.28-.42,4.53-.83,6.76,0,.03-.01.06-.02.08-.03.16-.06.32-.09.47h0c-.04.22-.09.44-.14.66,0,.02,0,.04-.01.07-.21,1.06-.45,2.11-.69,3.17-.14.59-.27,1.17-.41,1.76-.26,1.1-.18,2.37-.71,3.28-1.43,2.43-2.1,5.24-3.91,7.44-.58.71-.95,1.55-1.37,2.35-.07.14-.15.28-.23.41-.28.48-.59.94-1.01,1.33-.25.23-.51.46-.77.68-.21.18-.43.36-.63.55-.34.31-.68.63-.97.98-1.23,1.49-2.6,2.78-4.09,3.87-1.02.75-2.09,1.41-3.22,1.98,0,0-.01,0-.02,0-1.4.72-2.88,1.29-4.43,1.75-2.91.85-5.97,1.6-8.95,1.38-4.8-.36-9.62-1.01-14.11-3.06-3.49-1.6-6.87-3.4-9.93-5.71-2.71-2.05-5.22-4.37-7.36-7.03-1.17-1.45-2.84-1.79-4.37-1.51-2.91.54-5.75,1.5-8.53,2.57-.48.18-.7.29-1.1-.23-1.13-1.49-2.86-1.99-4.32-1.48-.43.15-.61.58-1.17.62-3.18.22-6.29.88-9.39,1.57-2.86.65-5.7,1.39-8.57,2.01-2.4.52-4.86.79-7.25,1.37-3.13.76-6.2,1.8-9.33,2.57-2.15.52-4.09,1.55-5.9,2.63-1.81,1.08-2.9,3.11-3.76,5.13-.79,1.87-1.07,3.95-.36,5.67,1.71,4.14,6.11,6.16,10.67,5.49,2.22-.32,4.31-1.01,6.43-1.7,3.74-1.22,7.39-2.68,11.04-4.13,3.48-1.38,6.9-2.92,10.34-4.41,3.22-1.39,6.49-2.65,9.81-3.74,1.88-.62,3.11-1.46,3.61-3.37.12-.47.52-.87,1.03-1.02,1.03-.3,2.07-.58,3.1-.89,2.2-.65,4.34-.07,5.24,1.76,1.54,3.14,3.75,5.79,5.82,8.55,2.2,2.92,4.77,5.45,7.83,7.47,3.07,2.02,6.45,3.43,9.86,4.72,2.06.77,4.24,1.12,6.46,1.31,2.49.21,4.96.03,7.44,0,2.9-.04,5.66-.78,8.37-1.54,3.4-.95,6.59-2.49,9.49-4.59.11-.07.21-.15.31-.22.9-.67,1.8-1.35,2.68-2.04,1.84-1.45,3.62-2.97,5.24-4.67.19-.2.38-.4.57-.6.32-.34.63-.7.94-1.05,2.14-2.5,3.95-5.24,5.47-8.16,1.52-2.91,3.12-5.8,4.02-9,.95-3.36,1.69-6.77,2.38-10.2.73-3.63,1.22-7.28,1.26-10.96.06-4.93-.14-9.84-.92-14.73ZM343.07,321.64s-.04-.01-.07-.02c.01,0,.02-.01.04-.02h0s.03,0,.05,0c0,.02,0,.03-.01.04ZM373.58,312.9c1.71-.08,3.06-1.23,4.86-.56-2,.7-3.62.89-3.35,1.41.38.72-.98-.27-1.51-.85ZM378.38,323.3c-.15.06-.34.05-.5.02-.35-.05-.7.75-.95.13-.27-.64.48-.87.87-1,1.17-.4,2.36-.76,3.82-1.43-.86,1.5-2.09,1.83-3.24,2.27ZM381.11,317.72c-1.25.16-2.42.58-3.57,1.08-.34.15-.65.28-.67-.3-.03-1.08-.54-2.01-1.03-2.93-.43-.81-.52-1.47.63-1.66.56-.09.93-.64,1.53-.6.67.04,1.36-.6,2,.08.92.97,1.75,2,1.85,3.44.11.59-.2.83-.75.9ZM442.9,226.98c1.28.01,1.62,1.12,2.31,1.71-.91-.31-1.65-.84-2.31-1.71ZM456.61,306h0s0,.04-.01.05c0-.02,0-.04,0-.05ZM468.09,299.86c-.9,4.43-1.95,8.79-3.54,13.04-1.07,2.86-2.31,5.64-3.92,8.2-1.21,1.92-2.48,3.8-3.92,5.56-.5.61-1.02,1.21-1.56,1.8-.48.52-.98,1.01-1.5,1.5-.94.88-1.87,1.75-2.84,2.58-.93.81-1.88,1.58-2.88,2.29-.08.07-.16.12-.25.18-3.02,2.13-6.27,3.94-9.76,4.94-4.1,1.17-8.33,1.97-12.7,1.8-3.09-.12-6.19-.27-9.03-1.44-3.09-1.28-6.27-2.37-9.06-4.46-2.64-1.97-5.33-3.9-7.36-6.43-1.78-2.21-3.86-4.25-5.02-6.97-.53-1.25-1.45-2.38-2.23-3.74,1.01.1,1.35.79,1.67,1.44,2.64,5.36,6.45,9.77,11.28,13.21,4.71,3.36,9.91,5.77,15.71,6.55,4.24.57,8.43.57,12.7-.39,4.51-1.01,8.66-2.7,12.66-4.88.61-.34,1.19-.72,1.74-1.13.99-.74,1.89-1.58,2.78-2.45.49-.48.97-.96,1.46-1.44.72-.7,1.41-1.41,2.08-2.15.56-.62,1.1-1.25,1.61-1.9,1.29-1.62,2.45-3.35,3.42-5.22,1.64-3.15,3.35-6.25,4.44-9.66,1.61-5.04,2.94-10.14,3.66-15.37.02-.13.04-.27.06-.4.16-1.2.29-2.41.38-3.63.36-4.84-.02-9.65-.31-14.47-.25-4-1.57-7.76-2.13-11.67-.5-3.5-1.69-6.76-3.07-9.93-1.77-4.09-3.5-8.2-6.25-11.82-1.13-1.48-2.01-3.2-3.07-4.77-.93-1.39-2.28-2.44-3.1-3.91-.05-.09-.31-.05-.47-.07.14.6.45,1.08.81,1.52-.39-.43-.77-.86-1.03-1.38-.12-.09-.24-.2-.34-.31-.09-.11-.18-.23-.27-.36-.1-.11-.18-.24-.25-.36-.27-.41-.53-.85-.77-1.28.19.13.38.26.57.38-.63-1.12-1.66-1.91-2.45-2.91-.22-.27-.76-.5-.4-.85.4-.4.68.23.88.44,2.17,2.17,4.09,4.55,6,6.95,1.15,1.44,2.47,2.87,3.32,4.39,1.76,3.18,4.02,6.05,5.46,9.44,1.56,3.66,3.11,7.31,4.32,11.1.9,2.8,1.28,5.71,1.82,8.57.92,4.85,1.77,9.73,1.85,14.68.08,5.09-.2,10.16-1.22,15.18ZM464.54,304.7s0-.01,0-.02h0s0,.02,0,.02Z"/>
      </g>
    </g>
  </g>
</svg>